<svg width="35" height="30" viewBox="0 0 35 30" fill="none" xmlns="http://www.w3.org/2000/svg">
<g clip-path="url(#clip0_27_147)">
<path d="M27.6351 12.5807C27.6259 12.5807 27.617 12.5819 27.6078 12.5819C27.3278 8.79949 23.805 5.80646 19.4888 5.80646C17.01 5.80646 14.794 6.79622 13.2998 8.35247C12.8428 8.26968 12.37 8.22585 11.8855 8.22585C8.6407 8.22585 5.91422 10.1786 5.08795 12.8352C2.42079 13.5626 0.480591 15.7724 0.480591 18.3871C0.480591 21.5938 3.39838 24.1935 6.9977 24.1935H27.6351C31.2344 24.1935 34.1522 21.5939 34.1522 18.3871C34.1522 15.1803 31.2344 12.5807 27.6351 12.5807Z" fill="#EDEBED"/>
<path d="M27.0924 22.2581H13.733C10.137 22.2581 7.05432 19.7467 6.99881 16.5432C6.95705 14.1337 8.56461 12.0579 10.8796 11.1449C11.3918 10.9429 11.8081 10.5941 12.0346 10.1377C12.3577 9.48668 12.7855 8.88621 13.2978 8.35207C12.8416 8.26957 12.3695 8.22574 11.8858 8.22574C8.64103 8.22574 5.91454 10.1785 5.08827 12.8351C2.37244 13.5759 0.41028 15.8537 0.482884 18.5307C0.569102 21.713 3.63802 24.1935 7.21084 24.1935H27.0924C27.6923 24.1935 28.1785 23.7602 28.1785 23.2258C28.1785 22.6913 27.6923 22.2581 27.0924 22.2581Z" fill="#DBD9DC"/>
</g>
<defs>
<clipPath id="clip0_27_147">
<rect width="33.6716" height="30" fill="white" transform="translate(0.480591)"/>
</clipPath>
</defs>
</svg>
