<svg width="30" height="30" viewBox="0 0 30 30" fill="none" xmlns="http://www.w3.org/2000/svg">
<path d="M24.1935 12.5807C24.1853 12.5807 24.1774 12.5819 24.1692 12.5819C23.9197 8.79949 20.781 5.80646 16.9355 5.80646C14.727 5.80646 12.7526 6.79622 11.4214 8.35247C11.0142 8.26968 10.5929 8.22585 10.1613 8.22585C7.27031 8.22585 4.84113 10.1786 4.10496 12.8352C1.72863 13.5626 0 15.7724 0 18.3871C0 21.5938 2.59963 24.1935 5.80646 24.1935H24.1935C27.4004 24.1935 30 21.5939 30 18.3871C30 15.1803 27.4004 12.5807 24.1935 12.5807Z" fill="#EDEBED"/>
<path d="M23.71 22.2581H11.8074C8.60355 22.2581 5.85697 19.7467 5.80752 16.5432C5.77031 14.1337 7.20257 12.0579 9.26513 11.1449C9.72152 10.9429 10.0924 10.5941 10.2942 10.1377C10.5821 9.48668 10.9632 8.88621 11.4197 8.35207C11.0132 8.26957 10.5926 8.22574 10.1616 8.22574C7.27066 8.22574 4.84148 10.1785 4.10531 12.8351C1.68562 13.5759 -0.0625836 15.8537 0.00210388 18.5307C0.0789203 21.713 2.8132 24.1935 5.99642 24.1935H23.71C24.2445 24.1935 24.6778 23.7602 24.6778 23.2258C24.6778 22.6913 24.2445 22.2581 23.71 22.2581Z" fill="#DBD9DC"/>
</svg>
