<svg width="90" height="90" viewBox="0 0 90 90" fill="none" xmlns="http://www.w3.org/2000/svg">
<path d="M86.578 69.1724C78.564 81.6735 64.5597 89.9652 48.6165 89.9997C23.917 90.0533 3.6362 70.0742 3.33755 45.3764C3.05665 22.1376 20.3221 2.8725 42.7173 0.00480032C43.1959 -0.0565473 43.5078 0.491011 43.2169 0.875972C37.817 8.02341 34.6157 16.9223 34.6157 26.5711C34.6157 50.1369 53.7189 69.2399 77.2845 69.2399C80.2735 69.2399 83.1893 68.9334 86.0045 68.3478C86.4771 68.2496 86.8386 68.766 86.578 69.1724Z" fill="#EFDA45"/>
<path d="M86.0056 68.3471C86.4774 68.249 86.8388 68.7642 86.5788 69.1701C78.5481 81.6984 64.5023 90 48.5172 90C23.5625 90 3.33496 69.7706 3.33496 44.8177C3.33496 34.832 6.57356 25.6038 12.0599 18.1236C10.8143 22.2096 10.1331 26.5414 10.1059 31.0293C9.95348 56.1716 30.1465 76.4925 55.2894 76.4914C64.4003 76.4911 72.8809 73.7946 79.9754 69.1543C82.0292 69.0279 84.0421 68.7556 86.0056 68.3471Z" fill="#EDC148"/>
</svg>
