<svg width="164" height="32" viewBox="0 0 164 32" fill="none" xmlns="http://www.w3.org/2000/svg">
<path d="M4.76826 0H159.184V15C159.184 24.3888 151.572 32 142.184 32H21.7682C12.3794 32 4.76826 24.3888 4.76826 15V0Z" fill="black"/>
<path d="M5.00001 0H1.05519e-05C-2.6001e-05 0 4.71047e-05 0 1.05519e-05 0C2.6506 0 4.79945 2.14875 4.79945 4.79934C4.79945 4.86656 4.79806 4.93345 4.79533 5H5.00001V0Z" fill="black"/>
<path d="M159 0H164C164 0 164 0 164 0C161.349 0 159.201 2.14875 159.201 4.79934C159.201 4.86656 159.202 4.93345 159.205 5H159V0Z" fill="black"/>
</svg>
