<svg width="35" height="30" viewBox="0 0 35 30" fill="none" xmlns="http://www.w3.org/2000/svg">
<g clip-path="url(#clip0_27_150)">
<path d="M10.7821 22.4706C10.7821 23.4301 9.90897 24.208 8.832 24.208C7.75504 24.208 6.88194 23.4301 6.88194 22.4706C6.88194 21.571 7.90202 20.3493 8.46661 19.742C8.65661 19.5377 9.0074 19.5377 9.19739 19.742C9.76205 20.3493 10.7821 21.5709 10.7821 22.4706Z" fill="#8AC9FE"/>
<path d="M19.2665 22.4706C19.2665 23.4301 18.3934 24.208 17.3164 24.208C16.2394 24.208 15.3663 23.4301 15.3663 22.4706C15.3663 21.571 16.3864 20.3493 16.951 19.742C17.141 19.5377 17.4918 19.5377 17.6818 19.742C18.2464 20.3493 19.2665 21.5709 19.2665 22.4706V22.4706Z" fill="#8AC9FE"/>
<path d="M27.7508 22.4706C27.7508 23.4301 26.8777 24.208 25.8007 24.208C24.7238 24.208 23.8507 23.4301 23.8507 22.4706C23.8507 21.571 24.8708 20.3493 25.4353 19.742C25.6253 19.5377 25.9761 19.5377 26.1661 19.742C26.7307 20.3493 27.7508 21.5709 27.7508 22.4706V22.4706Z" fill="#8AC9FE"/>
<path d="M15.0242 28.2611C15.0242 29.2206 14.1511 29.9985 13.0742 29.9985C11.9972 29.9985 11.1241 29.2206 11.1241 28.2611C11.1241 27.3615 12.1442 26.1398 12.7088 25.5326C12.8988 25.3283 13.2496 25.3283 13.4396 25.5326C14.0042 26.1398 15.0242 27.3615 15.0242 28.2611Z" fill="#8AC9FE"/>
<path d="M23.5086 28.2611C23.5086 29.2206 22.6355 29.9985 21.5586 29.9985C20.4816 29.9985 19.6085 29.2206 19.6085 28.2611C19.6085 27.3615 20.6286 26.1398 21.1932 25.5326C21.3832 25.3283 21.734 25.3283 21.924 25.5326C22.4886 26.1398 23.5086 27.3615 23.5086 28.2611V28.2611Z" fill="#8AC9FE"/>
<path d="M9.48973 24.1065C9.28388 24.1721 9.06291 24.2079 8.83208 24.2079C7.75485 24.2079 6.88215 23.4303 6.88215 22.4706C6.88215 21.5712 7.90216 20.3495 8.46643 19.7419C8.65649 19.5374 9.00767 19.5374 9.19773 19.7419C9.28586 19.8368 9.38516 19.9469 9.48973 20.0682C8.92349 20.7233 8.19745 21.7118 8.19745 22.4706C8.19745 23.2247 8.73606 23.8663 9.48973 24.1065V24.1065Z" fill="#60B7FF"/>
<path d="M17.9741 24.1065C17.7682 24.1721 17.5472 24.2079 17.3164 24.2079C16.2392 24.2079 15.3665 23.4303 15.3665 22.4706C15.3665 21.5712 16.3865 20.3495 16.9508 19.7419C17.1408 19.5374 17.492 19.5374 17.6821 19.7419C17.7702 19.8368 17.8695 19.9469 17.9741 20.0682C17.4078 20.7233 16.6818 21.7118 16.6818 22.4706C16.6818 23.2247 17.2204 23.8663 17.9741 24.1065V24.1065Z" fill="#60B7FF"/>
<path d="M26.4584 24.1065C26.2526 24.1721 26.0316 24.2079 25.8007 24.2079C24.7235 24.2079 23.8508 23.4303 23.8508 22.4706C23.8508 21.5712 24.8708 20.3495 25.4351 19.7419C25.6252 19.5374 25.9763 19.5374 26.1664 19.7419C26.2545 19.8368 26.3538 19.9469 26.4584 20.0682C25.8922 20.7233 25.1661 21.7118 25.1661 22.4706C25.1661 23.2247 25.7047 23.8663 26.4584 24.1065V24.1065Z" fill="#60B7FF"/>
<path d="M13.7316 29.8974C13.5264 29.963 13.3048 29.9987 13.0739 29.9987C11.9973 29.9987 11.124 29.2206 11.124 28.2608C11.124 27.3614 12.144 26.1397 12.7089 25.5327C12.899 25.3282 13.2495 25.3282 13.4396 25.5327C13.5277 25.6276 13.627 25.7372 13.7322 25.8579C13.166 26.513 12.4393 27.5015 12.4393 28.2608C12.4393 29.0149 12.9786 29.6571 13.7316 29.8974Z" fill="#60B7FF"/>
<path d="M22.2166 29.8974C22.0107 29.963 21.7897 29.9987 21.5589 29.9987C20.4817 29.9987 19.6083 29.2206 19.6083 28.2608C19.6083 27.3614 20.6283 26.1397 21.1933 25.5327C21.3833 25.3282 21.7338 25.3282 21.9239 25.5327C22.012 25.6276 22.1113 25.7372 22.2166 25.8579C21.6503 26.513 20.9236 27.5015 20.9236 28.2608C20.9236 29.0149 21.4629 29.6571 22.2166 29.8974Z" fill="#60B7FF"/>
<path d="M29.0194 7.92005H26.7105C26.3574 3.49417 22.216 0.00128174 17.1586 0.00128174C13.2064 0.00128174 9.81369 2.1345 8.35094 5.17904C7.9772 5.12161 7.593 5.09138 7.20085 5.09138C3.48934 5.09132 0.480591 7.77198 0.480591 11.0788C0.480591 14.3856 3.48934 17.0662 7.20085 17.0662H29.0194C31.8542 17.0662 34.1522 15.0188 34.1522 12.4931C34.1522 9.96749 31.8542 7.92005 29.0194 7.92005Z" fill="#EDEBED"/>
<path d="M18.853 0.134641C15.6437 0.644114 12.9872 2.57929 11.7386 5.17909C11.3646 5.12173 10.9805 5.09155 10.5883 5.09155C6.87695 5.09155 3.86814 7.77222 3.86814 11.0789C3.86814 14.3856 6.87689 17.0662 10.5883 17.0662H7.20078C3.48934 17.0662 0.480591 14.3856 0.480591 11.079C0.480591 7.77234 3.48934 5.09161 7.20071 5.09161C7.593 5.09161 7.97714 5.12179 8.35108 5.17915C9.81382 2.13445 13.2067 0.00128174 17.1586 0.00128174C17.7365 0.00128174 18.3028 0.0471606 18.853 0.134641V0.134641Z" fill="#DBD9DC"/>
</g>
<defs>
<clipPath id="clip0_27_150">
<rect width="33.6716" height="30" fill="white" transform="translate(0.480591)"/>
</clipPath>
</defs>
</svg>
