<svg width="30" height="30" viewBox="0 0 30 30" fill="none" xmlns="http://www.w3.org/2000/svg">
<g clip-path="url(#clip0_4_121)">
<path d="M29.9999 14.9999C29.9999 14.5654 29.6477 14.2132 29.2132 14.2132H27.9753L29.1538 13.0347C29.4611 12.7274 29.4611 12.2293 29.1538 11.9221C28.8465 11.6149 28.3484 11.6148 28.0412 11.9221L25.75 14.2132H24.5854L25.7639 13.0347C26.0712 12.7275 26.0712 12.2293 25.7639 11.9221C25.4566 11.6149 24.9585 11.6149 24.6513 11.9221L22.3601 14.2133H16.8994L20.7608 10.3519H24.0009C24.4354 10.3519 24.7877 9.99973 24.7877 9.5652C24.7877 9.13067 24.4354 8.77846 24.0009 8.77846H22.3343L23.1578 7.95499H26.3979C26.8324 7.95499 27.1847 7.60279 27.1847 7.16826C27.1847 6.73373 26.8324 6.38153 26.3979 6.38153H24.7313L25.6067 5.50614C25.9139 5.19888 25.9139 4.70071 25.6067 4.39351C25.2994 4.08625 24.8012 4.08625 24.494 4.39351L23.6187 5.26889V3.60203C23.6187 3.1675 23.2665 2.8153 22.8319 2.8153C22.3974 2.8153 22.0452 3.1675 22.0452 3.60203V6.84219L21.2217 7.66566V5.99909C21.2217 5.56456 20.8695 5.21235 20.435 5.21235C20.0005 5.21235 19.6483 5.56456 19.6483 5.99909V9.23924L15.7869 13.1006V7.63988L18.0781 5.3487C18.3853 5.04144 18.3853 4.54327 18.0781 4.23607C17.7707 3.92881 17.2726 3.92881 16.9654 4.23607L15.7869 5.41456V4.24996L18.0781 1.95878C18.3853 1.65151 18.3853 1.15335 18.0781 0.846147C17.7707 0.538884 17.2726 0.538884 16.9654 0.846147L15.7869 2.02464V0.786734C15.7868 0.352205 15.4346 0 15 0C14.5656 0 14.2133 0.352205 14.2133 0.786734V2.02464L13.0348 0.846147C12.7275 0.538884 12.2294 0.538884 11.9222 0.846147C11.6149 1.15341 11.6149 1.65157 11.9222 1.95878L14.2134 4.24996V5.41456L13.0349 4.23607C12.7276 3.92881 12.2295 3.92881 11.9222 4.23607C11.615 4.54333 11.615 5.04149 11.9222 5.3487L14.2134 7.63988V13.1006L10.3521 9.23924V5.99903C10.3521 5.5645 9.99985 5.21229 9.56532 5.21229C9.13079 5.21229 8.77859 5.5645 8.77859 5.99903V7.66566L7.95512 6.84219V3.60197C7.95512 3.16744 7.60291 2.81524 7.16838 2.81524C6.73385 2.81524 6.38165 3.16744 6.38165 3.60197V5.2686L5.50615 4.39339C5.19888 4.08613 4.70072 4.08613 4.39351 4.39339C4.08625 4.70066 4.08625 5.19882 4.39351 5.50602L5.2689 6.38141H3.60215C3.16762 6.38141 2.81542 6.73361 2.81542 7.16814C2.81542 7.60267 3.16762 7.95488 3.60215 7.95488H6.84231L7.66578 8.77835H5.99921C5.56468 8.77835 5.21247 9.13055 5.21247 9.56508C5.21247 9.99961 5.56468 10.3518 5.99921 10.3518H9.23937L13.1007 14.2132H7.64L5.34876 11.922C5.0415 11.6147 4.5434 11.6147 4.23613 11.922C3.92887 12.2293 3.92887 12.7274 4.23613 13.0346L5.41462 14.2131H4.25008L1.9589 11.922C1.65164 11.6147 1.15353 11.6147 0.846269 11.922C0.539006 12.2293 0.539006 12.7274 0.846269 13.0346L2.02476 14.2131H0.786856C0.352327 14.2131 0.00012207 14.5654 0.00012207 14.9999C0.00012207 15.4344 0.352327 15.7866 0.786856 15.7866H2.02482L0.846328 16.9651C0.539064 17.2724 0.539064 17.7706 0.846328 18.0778C0.99996 18.2314 1.20129 18.3082 1.40261 18.3082C1.60394 18.3082 1.80533 18.2314 1.9589 18.0778L4.25008 15.7866H5.41468L4.23619 16.9651C3.92893 17.2724 3.92893 17.7706 4.23619 18.0778C4.38982 18.2314 4.59115 18.3082 4.79248 18.3082C4.9938 18.3082 5.19519 18.2314 5.34876 18.0778L7.63994 15.7866H13.1007L9.23931 19.648H5.99915C5.56462 19.648 5.21242 20.0002 5.21242 20.4347C5.21242 20.8692 5.56462 21.2214 5.99915 21.2214H7.66578L6.84231 22.0449H3.60209C3.16756 22.0449 2.81536 22.3971 2.81536 22.8316C2.81536 23.2662 3.16756 23.6184 3.60209 23.6184H5.26872L4.39334 24.4937C4.08608 24.801 4.08608 25.2991 4.39334 25.6064C4.54697 25.76 4.7483 25.8368 4.94962 25.8368C5.15095 25.8368 5.35234 25.76 5.50591 25.6064L6.3813 24.731V26.3976C6.3813 26.8321 6.7335 27.1844 7.16803 27.1844C7.60256 27.1844 7.95476 26.8321 7.95476 26.3976V23.1575L8.77824 22.334V24.0006C8.77824 24.4352 9.13044 24.7874 9.56497 24.7874C9.9995 24.7874 10.3517 24.4352 10.3517 24.0006V20.7605L14.2131 16.8991V22.3598L11.9219 24.651C11.6146 24.9583 11.6146 25.4564 11.9219 25.7636C12.2292 26.0709 12.7273 26.0709 13.0345 25.7636L14.213 24.5851V25.7497L11.9218 28.0409C11.6146 28.3481 11.6146 28.8463 11.9218 29.1535C12.0755 29.3071 12.2768 29.3839 12.4781 29.3839C12.6795 29.3839 12.8808 29.3071 13.0344 29.1535L14.2129 27.975V29.2129C14.2129 29.6474 14.5652 29.9996 14.9996 29.9996C15.4342 29.9996 15.7864 29.6474 15.7864 29.2129V27.975L16.9649 29.1536C17.2722 29.4608 17.7703 29.4608 18.0775 29.1536C18.3847 28.8463 18.3848 28.3482 18.0775 28.0409L15.7864 25.7498V24.5851L16.9649 25.7637C17.1185 25.9173 17.3199 25.9941 17.5212 25.9941C17.7225 25.9941 17.9239 25.9173 18.0775 25.7637C18.3847 25.4564 18.3847 24.9583 18.0775 24.6511L15.7863 22.3599V16.8995L19.6477 20.7609V24.001C19.6477 24.4356 19.9999 24.7878 20.4344 24.7878C20.8689 24.7878 21.2211 24.4356 21.2211 24.001V22.3344L22.0446 23.1579V26.398C22.0446 26.8326 22.3968 27.1848 22.8313 27.1848C23.2659 27.1848 23.6181 26.8326 23.6181 26.398V24.7314L24.4935 25.6068C24.6471 25.7604 24.8485 25.8372 25.0497 25.8372C25.2511 25.8372 25.4525 25.7604 25.606 25.6068C25.9133 25.2995 25.9133 24.8014 25.606 24.4942L24.7306 23.6188H26.3973C26.8318 23.6188 27.184 23.2666 27.184 22.832C27.184 22.3975 26.8318 22.0453 26.3973 22.0453H23.1571L22.3336 21.2218H24.0003C24.4348 21.2218 24.787 20.8696 24.787 20.4351C24.787 20.0006 24.4348 19.6484 24.0003 19.6484H20.7601L16.8988 15.787H22.3595L24.6507 18.0782C24.8043 18.2318 25.0057 18.3086 25.2069 18.3086C25.4082 18.3086 25.6097 18.2318 25.7632 18.0782C26.0705 17.7709 26.0705 17.2728 25.7632 16.9655L24.5847 15.787H25.7493L28.0405 18.0782C28.1941 18.2318 28.3955 18.3086 28.5968 18.3086C28.7981 18.3086 28.9995 18.2318 29.153 18.0782C29.4603 17.7709 29.4603 17.2728 29.153 16.9655L27.9745 15.787H29.2124C29.6477 15.7866 29.9999 15.4344 29.9999 14.9999Z" fill="#EDEBED"/>
</g>
<defs>
<clipPath id="clip0_4_121">
<rect width="30" height="30" fill="white"/>
</clipPath>
</defs>
</svg>
