<svg width="35" height="30" viewBox="0 0 35 30" fill="none" xmlns="http://www.w3.org/2000/svg">
<g clip-path="url(#clip0_27_172)">
<path d="M34.1521 14.9999C34.1521 14.5654 33.7568 14.2132 33.2691 14.2132H31.8797L33.2024 13.0347C33.5473 12.7274 33.5473 12.2293 33.2024 11.9221C32.8576 11.6149 32.2985 11.6148 31.9536 11.9221L29.382 14.2132H28.075L29.3977 13.0347C29.7426 12.7275 29.7426 12.2293 29.3977 11.9221C29.0528 11.6149 28.4937 11.6149 28.1489 11.9221L25.5773 14.2133H19.4482L23.7822 10.3519H27.4189C27.9066 10.3519 28.3019 9.99973 28.3019 9.5652C28.3019 9.13067 27.9066 8.77846 27.4189 8.77846H25.5483L26.4726 7.95499H30.1093C30.597 7.95499 30.9923 7.60279 30.9923 7.16826C30.9923 6.73373 30.597 6.38153 30.1093 6.38153H28.2387L29.2212 5.50614C29.5661 5.19888 29.5661 4.70071 29.2212 4.39351C28.8763 4.08625 28.3172 4.08625 27.9724 4.39351L26.9899 5.26889V3.60203C26.9899 3.1675 26.5945 2.8153 26.1068 2.8153C25.6191 2.8153 25.2238 3.1675 25.2238 3.60203V6.84219L24.2996 7.66566V5.99909C24.2996 5.56456 23.9042 5.21235 23.4165 5.21235C22.9288 5.21235 22.5335 5.56456 22.5335 5.99909V9.23924L18.1996 13.1006V7.63988L20.7712 5.3487C21.116 5.04144 21.116 4.54327 20.7712 4.23607C20.4262 3.92881 19.8672 3.92881 19.5224 4.23607L18.1996 5.41456V4.24996L20.7712 1.95878C21.116 1.65151 21.116 1.15335 20.7712 0.846147C20.4262 0.538884 19.8672 0.538884 19.5224 0.846147L18.1996 2.02464V0.786734C18.1994 0.352205 17.8041 0 17.3164 0C16.8288 0 16.4334 0.352205 16.4334 0.786734V2.02464L15.1107 0.846147C14.7658 0.538884 14.2067 0.538884 13.8619 0.846147C13.517 1.15341 13.517 1.65157 13.8619 1.95878L16.4335 4.24996V5.41456L15.1107 4.23607C14.7659 3.92881 14.2068 3.92881 13.8619 4.23607C13.5171 4.54333 13.5171 5.04149 13.8619 5.3487L16.4335 7.63988V13.1006L12.0996 9.23924V5.99903C12.0996 5.5645 11.7043 5.21229 11.2166 5.21229C10.7288 5.21229 10.3335 5.5645 10.3335 5.99903V7.66566L9.40928 6.84219V3.60197C9.40928 3.16744 9.01397 2.81524 8.52626 2.81524C8.03855 2.81524 7.64324 3.16744 7.64324 3.60197V5.2686L6.66059 4.39339C6.31572 4.08613 5.75659 4.08613 5.41179 4.39339C5.06692 4.70066 5.06692 5.19882 5.41179 5.50602L6.39431 6.38141H4.52357C4.03586 6.38141 3.64055 6.73361 3.64055 7.16814C3.64055 7.60267 4.03586 7.95488 4.52357 7.95488H8.16028L9.08454 8.77835H7.214C6.72629 8.77835 6.33098 9.13055 6.33098 9.56508C6.33098 9.99961 6.72629 10.3518 7.214 10.3518H10.8507L15.1847 14.2132H9.0556L6.48394 11.922C6.13908 11.6147 5.58001 11.6147 5.23514 11.922C4.89027 12.2293 4.89027 12.7274 5.23514 13.0346L6.55786 14.2131H5.25079L2.6792 11.922C2.33433 11.6147 1.77527 11.6147 1.4304 11.922C1.08553 12.2293 1.08553 12.7274 1.4304 13.0346L2.75312 14.2131H1.36371C0.876005 14.2131 0.480694 14.5654 0.480694 14.9999C0.480694 15.4344 0.876005 15.7866 1.36371 15.7866H2.75319L1.43047 16.9651C1.0856 17.2724 1.0856 17.7706 1.43047 18.0778C1.6029 18.2314 1.82887 18.3082 2.05483 18.3082C2.2808 18.3082 2.50683 18.2314 2.6792 18.0778L5.25079 15.7866H6.55793L5.23521 16.9651C4.89034 17.2724 4.89034 17.7706 5.23521 18.0778C5.40764 18.2314 5.63361 18.3082 5.85958 18.3082C6.08554 18.3082 6.31158 18.2314 6.48394 18.0778L9.05554 15.7866H15.1846L10.8506 19.648H7.21393C6.72622 19.648 6.33091 20.0002 6.33091 20.4347C6.33091 20.8692 6.72622 21.2214 7.21393 21.2214H9.08454L8.16028 22.0449H4.5235C4.03579 22.0449 3.64048 22.3971 3.64048 22.8316C3.64048 23.2662 4.03579 23.6184 4.5235 23.6184H6.39411L5.41159 24.4937C5.06672 24.801 5.06672 25.2991 5.41159 25.6064C5.58402 25.76 5.80999 25.8368 6.03596 25.8368C6.26192 25.8368 6.48796 25.76 6.66033 25.6064L7.64285 24.731V26.3976C7.64285 26.8321 8.03816 27.1844 8.52587 27.1844C9.01358 27.1844 9.40889 26.8321 9.40889 26.3976V23.1575L10.3331 22.334V24.0006C10.3331 24.4352 10.7285 24.7874 11.2162 24.7874C11.7039 24.7874 12.0992 24.4352 12.0992 24.0006V20.7605L16.4331 16.8991V22.3598L13.8615 24.651C13.5167 24.9583 13.5167 25.4564 13.8615 25.7636C14.2064 26.0709 14.7655 26.0709 15.1103 25.7636L16.4331 24.5851V25.7497L13.8615 28.0409C13.5166 28.3481 13.5166 28.8463 13.8615 29.1535C14.0339 29.3071 14.2599 29.384 14.4858 29.384C14.7119 29.384 14.9378 29.3071 15.1102 29.1535L16.4329 27.975V29.2129C16.4329 29.6474 16.8283 29.9996 17.316 29.9996C17.8037 29.9996 18.199 29.6474 18.199 29.2129V27.975L19.5218 29.1536C19.8666 29.4608 20.4258 29.4608 20.7706 29.1536C21.1154 28.8463 21.1154 28.3482 20.7706 28.0409L18.199 25.7498V24.5851L19.5218 25.7637C19.6942 25.9173 19.9202 25.9941 20.1461 25.9941C20.372 25.9941 20.5981 25.9173 20.7705 25.7637C21.1154 25.4564 21.1154 24.9583 20.7705 24.6511L18.1989 22.3599V16.8995L22.5329 20.7609V24.001C22.5329 24.4356 22.9282 24.7878 23.4159 24.7878C23.9036 24.7878 24.2989 24.4356 24.2989 24.001V22.3344L25.2232 23.1579V26.398C25.2232 26.8326 25.6185 27.1848 26.1062 27.1848C26.5939 27.1848 26.9892 26.8326 26.9892 26.398V24.7314L27.9717 25.6068C28.1442 25.7604 28.3702 25.8372 28.5961 25.8372C28.8221 25.8372 29.0481 25.7604 29.2205 25.6068C29.5653 25.2995 29.5653 24.8014 29.2205 24.4942L28.2379 23.6188H30.1085C30.5963 23.6188 30.9916 23.2666 30.9916 22.832C30.9916 22.3975 30.5963 22.0453 30.1085 22.0453H26.4718L25.5476 21.2218H27.4182C27.9059 21.2218 28.3012 20.8696 28.3012 20.4351C28.3012 20.0006 27.9059 19.6484 27.4182 19.6484H23.7815L19.4475 15.787H25.5766L28.1482 18.0782C28.3206 18.2318 28.5466 18.3086 28.7725 18.3086C28.9984 18.3086 29.2245 18.2318 29.3969 18.0782C29.7418 17.7709 29.7418 17.2728 29.3969 16.9655L28.0741 15.787H29.3813L31.9528 18.0782C32.1253 18.2318 32.3513 18.3086 32.5772 18.3086C32.8032 18.3086 33.0292 18.2318 33.2016 18.0782C33.5464 17.7709 33.5464 17.2728 33.2016 16.9655L31.8788 15.787H33.2682C33.7568 15.7866 34.1521 15.4344 34.1521 14.9999Z" fill="#EDEBED"/>
</g>
<defs>
<clipPath id="clip0_27_172">
<rect width="33.6716" height="30" fill="white" transform="translate(0.480591)"/>
</clipPath>
</defs>
</svg>
