<svg width="108" height="100" viewBox="0 0 108 100" fill="none" xmlns="http://www.w3.org/2000/svg">
<g clip-path="url(#clip0_4_35)">
<path d="M53.9249 78.2854C70.7102 78.2854 84.3173 65.6213 84.3173 49.9994C84.3173 34.3775 70.7102 21.7135 53.9249 21.7135C37.1397 21.7135 23.5326 34.3775 23.5326 49.9994C23.5326 65.6213 37.1397 78.2854 53.9249 78.2854Z" fill="#FFD347"/>
<path d="M53.9255 11.1033C53.0288 11.1033 52.3019 10.427 52.3019 9.59219V1.51113C52.3019 0.676367 53.0288 0 53.9255 0C54.8223 0 55.5492 0.676367 55.5492 1.51113V9.59238C55.5492 10.427 54.8223 11.1033 53.9255 11.1033Z" fill="#FFD347"/>
<path d="M32.2185 16.5172C31.6574 16.5172 31.1118 16.2463 30.811 15.7615L26.4697 8.76308C26.0215 8.04042 26.2874 7.11621 27.064 6.69882C27.8407 6.28203 28.8336 6.5289 29.282 7.25195L33.6233 14.2504C34.0716 14.973 33.8057 15.8973 33.029 16.3146C32.7732 16.4519 32.4941 16.5172 32.2185 16.5172Z" fill="#FFD347"/>
<path d="M16.324 31.3074C16.0487 31.3074 15.7694 31.2422 15.5138 31.1047L7.99417 27.0642C7.2177 26.647 6.9516 25.7228 7.39985 25C7.84811 24.2771 8.84115 24.0299 9.61783 24.4469L17.1374 28.4873C17.9139 28.9045 18.18 29.8287 17.7317 30.5515C17.4308 31.0365 16.8852 31.3074 16.324 31.3074Z" fill="#FFD347"/>
<path d="M10.5086 51.5112H1.82581C0.929093 51.5112 0.202148 50.8348 0.202148 50C0.202148 49.1653 0.929093 48.4889 1.82581 48.4889H10.5089C11.4056 48.4889 12.1325 49.1653 12.1325 50C12.1325 50.8348 11.4054 51.5112 10.5086 51.5112Z" fill="#FFD347"/>
<path d="M8.80735 75.7556C8.24619 75.7556 7.70056 75.4847 7.39984 75C6.95158 74.2773 7.21747 73.3531 7.99415 72.9357L15.5138 68.8953C16.2902 68.4785 17.2833 68.7254 17.7317 69.4484C18.18 70.1711 17.9141 71.0953 17.1374 71.5127L9.61782 75.5531C9.362 75.6904 9.08268 75.7556 8.80735 75.7556Z" fill="#FFD347"/>
<path d="M27.8743 93.5039C27.599 93.5039 27.3197 93.4387 27.0641 93.3012C26.2876 92.884 26.0215 91.9598 26.4697 91.2369L30.8111 84.2385C31.2593 83.5157 32.2523 83.2684 33.029 83.6854C33.8055 84.1026 34.0716 85.0268 33.6233 85.7496L29.282 92.7481C28.9811 93.2328 28.4355 93.5039 27.8743 93.5039Z" fill="#FFD347"/>
<path d="M53.9255 100C53.0288 100 52.3019 99.3236 52.3019 98.4889V90.4076C52.3019 89.5729 53.0288 88.8965 53.9255 88.8965C54.8223 88.8965 55.5492 89.5729 55.5492 90.4076V98.4889C55.5492 99.3236 54.8223 100 53.9255 100Z" fill="#FFD347"/>
<path d="M79.9768 93.5039C79.4156 93.5039 78.87 93.233 78.5693 92.7483L74.228 85.7498C73.7797 85.0272 74.0456 84.103 74.8223 83.6856C75.5988 83.2688 76.5918 83.5157 77.0403 84.2387L81.3816 91.2371C81.8298 91.9598 81.5639 92.884 80.7873 93.3014C80.5315 93.4387 80.2523 93.5039 79.9768 93.5039Z" fill="#FFD347"/>
<path d="M99.0437 75.7556C98.7684 75.7556 98.4891 75.6904 98.2335 75.5529L90.7139 71.5125C89.9374 71.0953 89.6713 70.1711 90.1196 69.4482C90.5678 68.7254 91.5609 68.4781 92.3376 68.8951L99.8572 72.9355C100.634 73.3527 100.9 74.2769 100.451 74.9998C100.151 75.4845 99.6049 75.7556 99.0437 75.7556Z" fill="#FFD347"/>
<path d="M106.025 51.5112H97.3422C96.4455 51.5112 95.7186 50.8348 95.7186 50C95.7186 49.1653 96.4455 48.4889 97.3422 48.4889H106.025C106.922 48.4889 107.649 49.1653 107.649 50C107.649 50.8348 106.922 51.5112 106.025 51.5112Z" fill="#FFD347"/>
<path d="M91.5271 31.3074C90.966 31.3074 90.4204 31.0365 90.1196 30.5517C89.6714 29.8291 89.9373 28.9049 90.7139 28.4875L98.2335 24.4471C99.01 24.0303 100.003 24.2771 100.452 25.0002C100.9 25.7228 100.634 26.6471 99.8572 27.0644L92.3376 31.1049C92.0818 31.2422 91.8025 31.3074 91.5271 31.3074Z" fill="#FFD347"/>
<path d="M75.6326 16.5172C75.3572 16.5172 75.0779 16.4519 74.8223 16.3144C74.0458 15.8973 73.7797 14.973 74.228 14.2502L78.5693 7.25175C79.0175 6.5289 80.0106 6.28163 80.7873 6.69862C81.5637 7.11581 81.8298 8.04003 81.3816 8.76288L77.0403 15.7613C76.7393 16.2463 76.1935 16.5172 75.6326 16.5172Z" fill="#FFD347"/>
<path d="M53.9256 21.7148C52.8255 21.7148 51.7393 21.7707 50.6694 21.8766C65.9229 23.3889 77.8046 35.4023 77.8046 49.9998C77.8046 64.5973 65.9227 76.6109 50.6694 78.1232C51.7393 78.2295 52.8253 78.285 53.9256 78.285C70.7104 78.285 84.3171 65.6213 84.3171 49.9998C84.3171 34.3783 70.7106 21.7148 53.9256 21.7148Z" fill="#FFBE31"/>
</g>
<defs>
<clipPath id="clip0_4_35">
<rect width="107.447" height="100" fill="white" transform="translate(0.202148)"/>
</clipPath>
</defs>
</svg>
