<svg width="35" height="30" viewBox="0 0 35 30" fill="none" xmlns="http://www.w3.org/2000/svg">
<g clip-path="url(#clip0_27_110)">
<path d="M17.3162 23.4856C22.5764 23.4856 26.8406 19.6864 26.8406 14.9998C26.8406 10.3133 22.5764 6.51404 17.3162 6.51404C12.0561 6.51404 7.79187 10.3133 7.79187 14.9998C7.79187 19.6864 12.0561 23.4856 17.3162 23.4856Z" fill="#FFD347"/>
<path d="M17.3164 3.331C17.0354 3.331 16.8076 3.12809 16.8076 2.87766V0.45334C16.8076 0.20291 17.0354 0 17.3164 0C17.5974 0 17.8252 0.20291 17.8252 0.45334V2.87771C17.8252 3.12809 17.5974 3.331 17.3164 3.331Z" fill="#FFD347"/>
<path d="M10.5139 4.95515C10.338 4.95515 10.167 4.87388 10.0728 4.72845L8.71232 2.62892C8.57185 2.41213 8.65517 2.13486 8.89857 2.00965C9.14197 1.88461 9.4531 1.95867 9.59364 2.17558L10.9541 4.27512C11.0946 4.49191 11.0113 4.76918 10.7679 4.89439C10.6877 4.93558 10.6002 4.95515 10.5139 4.95515Z" fill="#FFD347"/>
<path d="M5.53285 9.39223C5.44657 9.39223 5.35903 9.37266 5.27893 9.33141L2.92244 8.11928C2.67911 7.99412 2.59572 7.71686 2.7362 7.5C2.87667 7.28314 3.18787 7.20896 3.43127 7.33406L5.78776 8.54619C6.03109 8.67135 6.11448 8.94861 5.974 9.16547C5.87969 9.31096 5.70871 9.39223 5.53285 9.39223Z" fill="#FFD347"/>
<path d="M3.71044 15.4533H0.989414C0.708401 15.4533 0.480591 15.2504 0.480591 15C0.480591 14.7496 0.708401 14.5467 0.989414 14.5467H3.7105C3.99152 14.5467 4.21933 14.7496 4.21933 15C4.21933 15.2504 3.99145 15.4533 3.71044 15.4533Z" fill="#FFD347"/>
<path d="M3.17728 22.7267C3.00143 22.7267 2.83044 22.6454 2.7362 22.5C2.59572 22.2832 2.67905 22.0059 2.92244 21.8807L5.27893 20.6686C5.52226 20.5435 5.83346 20.6176 5.974 20.8345C6.11448 21.0513 6.03115 21.3286 5.78776 21.4538L3.43127 22.6659C3.3511 22.7071 3.26357 22.7267 3.17728 22.7267Z" fill="#FFD347"/>
<path d="M9.15249 28.0512C9.0662 28.0512 8.97867 28.0316 8.89857 27.9904C8.65524 27.8652 8.57185 27.5879 8.71232 27.3711L10.0728 25.2715C10.2133 25.0547 10.5245 24.9805 10.7679 25.1056C11.0112 25.2308 11.0946 25.508 10.9541 25.7249L9.59364 27.8244C9.49933 27.9698 9.32834 28.0512 9.15249 28.0512Z" fill="#FFD347"/>
<path d="M17.3164 30C17.0354 30 16.8076 29.7971 16.8076 29.5467V27.1223C16.8076 26.8719 17.0354 26.6689 17.3164 26.6689C17.5974 26.6689 17.8252 26.8719 17.8252 27.1223V29.5467C17.8252 29.7971 17.5974 30 17.3164 30Z" fill="#FFD347"/>
<path d="M25.4803 28.0512C25.3045 28.0512 25.1335 27.9699 25.0393 27.8245L23.6788 25.7249C23.5383 25.5081 23.6216 25.2309 23.865 25.1057C24.1084 24.9806 24.4196 25.0547 24.5601 25.2716L25.9206 27.3711C26.061 27.5879 25.9777 27.8652 25.7343 27.9904C25.6542 28.0316 25.5667 28.0512 25.4803 28.0512Z" fill="#FFD347"/>
<path d="M31.4555 22.7267C31.3693 22.7267 31.2817 22.7071 31.2016 22.6659L28.8451 21.4537C28.6018 21.3286 28.5184 21.0513 28.6589 20.8345C28.7994 20.6176 29.1106 20.5434 29.354 20.6685L31.7105 21.8807C31.9538 22.0058 32.0372 22.2831 31.8967 22.4999C31.8024 22.6454 31.6314 22.7267 31.4555 22.7267Z" fill="#FFD347"/>
<path d="M33.6434 15.4533H30.9223C30.6413 15.4533 30.4135 15.2504 30.4135 15C30.4135 14.7496 30.6413 14.5467 30.9223 14.5467H33.6434C33.9244 14.5467 34.1522 14.7496 34.1522 15C34.1522 15.2504 33.9244 15.4533 33.6434 15.4533Z" fill="#FFD347"/>
<path d="M29.1 9.39221C28.9241 9.39221 28.7531 9.31095 28.6589 9.16552C28.5184 8.94872 28.6017 8.67145 28.8451 8.54624L31.2016 7.33411C31.445 7.20907 31.7562 7.28313 31.8967 7.50005C32.0372 7.71684 31.9538 7.99411 31.7104 8.11932L29.354 9.33145C29.2738 9.37264 29.1863 9.39221 29.1 9.39221Z" fill="#FFD347"/>
<path d="M24.1189 4.95517C24.0327 4.95517 23.9451 4.9356 23.865 4.89435C23.6217 4.76919 23.5383 4.49192 23.6788 4.27507L25.0393 2.17554C25.1797 1.95868 25.4909 1.8845 25.7343 2.0096C25.9777 2.13476 26.061 2.41202 25.9206 2.62888L24.5601 4.72841C24.4658 4.8739 24.2947 4.95517 24.1189 4.95517Z" fill="#FFD347"/>
<path d="M17.3164 6.51447C16.9717 6.51447 16.6313 6.53122 16.296 6.56298C21.0761 7.01667 24.7996 10.6207 24.7996 15C24.7996 19.3792 21.0761 22.9833 16.296 23.437C16.6313 23.4689 16.9716 23.4855 17.3164 23.4855C22.5764 23.4855 26.8405 19.6864 26.8405 15C26.8405 10.3135 22.5765 6.51447 17.3164 6.51447Z" fill="#FFBE31"/>
</g>
<defs>
<clipPath id="clip0_27_110">
<rect width="33.6716" height="30" fill="white" transform="translate(0.480591)"/>
</clipPath>
</defs>
</svg>
