<svg width="100" height="100" viewBox="0 0 100 100" fill="none" xmlns="http://www.w3.org/2000/svg">
<g clip-path="url(#clip0_27_6)">
<path d="M49.9994 78.2854C65.6213 78.2854 78.2854 65.6213 78.2854 49.9994C78.2854 34.3775 65.6213 21.7135 49.9994 21.7135C34.3775 21.7135 21.7135 34.3775 21.7135 49.9994C21.7135 65.6213 34.3775 78.2854 49.9994 78.2854Z" fill="#FFD347"/>
<path d="M50 11.1033C49.1654 11.1033 48.4889 10.427 48.4889 9.59219V1.51113C48.4889 0.676367 49.1654 0 50 0C50.8346 0 51.5111 0.676367 51.5111 1.51113V9.59238C51.5111 10.427 50.8346 11.1033 50 11.1033Z" fill="#FFD347"/>
<path d="M29.7975 16.5172C29.2752 16.5172 28.7674 16.2463 28.4875 15.7615L24.4471 8.76308C24.0299 8.04042 24.2774 7.11621 25.0002 6.69882C25.7231 6.28203 26.6471 6.5289 27.0645 7.25195L31.1049 14.2504C31.5221 14.973 31.2746 15.8973 30.5518 16.3146C30.3137 16.4519 30.0539 16.5172 29.7975 16.5172Z" fill="#FFD347"/>
<path d="M15.0045 31.3074C14.7482 31.3074 14.4883 31.2422 14.2504 31.1047L7.25195 27.0642C6.5293 26.647 6.28164 25.7228 6.69883 25C7.11601 24.2771 8.04023 24.0299 8.76309 24.4469L15.7615 28.4873C16.4842 28.9045 16.7318 29.8287 16.3146 30.5515C16.0346 31.0365 15.5268 31.3074 15.0045 31.3074Z" fill="#FFD347"/>
<path d="M9.59219 51.5112H1.51113C0.676563 51.5112 0 50.8348 0 50C0 49.1653 0.676563 48.4889 1.51113 48.4889H9.59238C10.427 48.4889 11.1035 49.1653 11.1035 50C11.1035 50.8348 10.4268 51.5112 9.59219 51.5112Z" fill="#FFD347"/>
<path d="M8.00879 75.7556C7.48653 75.7556 6.97871 75.4847 6.69883 75C6.28164 74.2773 6.52911 73.3531 7.25196 72.9357L14.2504 68.8953C14.9731 68.4785 15.8973 68.7254 16.3147 69.4484C16.7318 70.1711 16.4844 71.0953 15.7615 71.5127L8.76309 75.5531C8.525 75.6904 8.26504 75.7556 8.00879 75.7556Z" fill="#FFD347"/>
<path d="M25.7543 93.5039C25.498 93.5039 25.2381 93.4387 25.0002 93.3012C24.2775 92.884 24.0299 91.9598 24.4471 91.2369L28.4875 84.2385C28.9047 83.5157 29.8289 83.2684 30.5518 83.6854C31.2744 84.1026 31.5221 85.0268 31.1049 85.7496L27.0645 92.7481C26.7844 93.2328 26.2766 93.5039 25.7543 93.5039Z" fill="#FFD347"/>
<path d="M50 100C49.1654 100 48.4889 99.3236 48.4889 98.4889V90.4076C48.4889 89.5729 49.1654 88.8965 50 88.8965C50.8346 88.8965 51.5111 89.5729 51.5111 90.4076V98.4889C51.5111 99.3236 50.8346 100 50 100Z" fill="#FFD347"/>
<path d="M74.2457 93.5039C73.7234 93.5039 73.2156 93.233 72.9357 92.7483L68.8953 85.7498C68.4781 85.0272 68.7256 84.103 69.4484 83.6856C70.1711 83.2688 71.0953 83.5157 71.5127 84.2387L75.5531 91.2371C75.9703 91.9598 75.7229 92.884 75 93.3014C74.7619 93.4387 74.5022 93.5039 74.2457 93.5039Z" fill="#FFD347"/>
<path d="M91.9912 75.7556C91.735 75.7556 91.475 75.6904 91.2371 75.5529L84.2387 71.5125C83.516 71.0953 83.2684 70.1711 83.6856 69.4482C84.1027 68.7254 85.027 68.4781 85.7498 68.8951L92.7482 72.9355C93.4709 73.3527 93.7186 74.2769 93.3014 74.9998C93.0213 75.4845 92.5135 75.7556 91.9912 75.7556Z" fill="#FFD347"/>
<path d="M98.4889 51.5112H90.4076C89.573 51.5112 88.8965 50.8348 88.8965 50C88.8965 49.1653 89.573 48.4889 90.4076 48.4889H98.4889C99.3234 48.4889 100 49.1653 100 50C100 50.8348 99.3234 51.5112 98.4889 51.5112Z" fill="#FFD347"/>
<path d="M84.9955 31.3074C84.4732 31.3074 83.9654 31.0365 83.6855 30.5517C83.2684 29.8291 83.5158 28.9049 84.2387 28.4875L91.2371 24.4471C91.9598 24.0303 92.884 24.2771 93.3014 25.0002C93.7186 25.7228 93.4711 26.6471 92.7482 27.0644L85.7498 31.1049C85.5117 31.2422 85.2518 31.3074 84.9955 31.3074Z" fill="#FFD347"/>
<path d="M70.2025 16.5172C69.9463 16.5172 69.6863 16.4519 69.4484 16.3144C68.7258 15.8973 68.4781 14.973 68.8953 14.2502L72.9357 7.25175C73.3529 6.5289 74.2772 6.28163 75 6.69862C75.7227 7.11581 75.9703 8.04003 75.5531 8.76288L71.5127 15.7613C71.2326 16.2463 70.7246 16.5172 70.2025 16.5172Z" fill="#FFD347"/>
<path d="M50 21.7148C48.9762 21.7148 47.9652 21.7707 46.9695 21.8766C61.1658 23.3889 72.224 35.4023 72.224 49.9998C72.224 64.5973 61.1656 76.6109 46.9695 78.1232C47.9652 78.2295 48.976 78.285 50 78.285C65.6215 78.285 78.2852 65.6213 78.2852 49.9998C78.2852 34.3783 65.6217 21.7148 50 21.7148Z" fill="#FFBE31"/>
</g>
<defs>
<clipPath id="clip0_27_6">
<rect width="100" height="100" fill="white"/>
</clipPath>
</defs>
</svg>
