<svg width="30" height="30" viewBox="0 0 30 30" fill="none" xmlns="http://www.w3.org/2000/svg">
<g clip-path="url(#clip0_27_29)">
<path d="M14.9998 23.4856C19.6864 23.4856 23.4856 19.6864 23.4856 14.9998C23.4856 10.3133 19.6864 6.51404 14.9998 6.51404C10.3133 6.51404 6.51404 10.3133 6.51404 14.9998C6.51404 19.6864 10.3133 23.4856 14.9998 23.4856Z" fill="#FFD347"/>
<path d="M15 3.331C14.7496 3.331 14.5466 3.12809 14.5466 2.87766V0.45334C14.5466 0.20291 14.7496 0 15 0C15.2503 0 15.4533 0.20291 15.4533 0.45334V2.87771C15.4533 3.12809 15.2503 3.331 15 3.331Z" fill="#FFD347"/>
<path d="M8.93924 4.95515C8.78256 4.95515 8.63021 4.87388 8.54625 4.72845L7.33412 2.62892C7.20896 2.41213 7.2832 2.13486 7.50006 2.00965C7.71691 1.88461 7.99412 1.95867 8.11933 2.17558L9.33146 4.27512C9.45662 4.49191 9.38238 4.76918 9.16552 4.89439C9.0941 4.93558 9.01617 4.95515 8.93924 4.95515Z" fill="#FFD347"/>
<path d="M4.50134 9.39223C4.42447 9.39223 4.34648 9.37266 4.27511 9.33141L2.17558 8.11928C1.95878 7.99412 1.88449 7.71686 2.00964 7.5C2.1348 7.28314 2.41206 7.20896 2.62892 7.33406L4.72845 8.54619C4.94525 8.67135 5.01955 8.94861 4.89439 9.16547C4.81037 9.31096 4.65802 9.39223 4.50134 9.39223Z" fill="#FFD347"/>
<path d="M2.87766 15.4533H0.45334C0.202969 15.4533 0 15.2504 0 15C0 14.7496 0.202969 14.5467 0.45334 14.5467H2.87771C3.12809 14.5467 3.33105 14.7496 3.33105 15C3.33105 15.2504 3.12803 15.4533 2.87766 15.4533Z" fill="#FFD347"/>
<path d="M2.40264 22.7267C2.24596 22.7267 2.09362 22.6454 2.00966 22.5C1.8845 22.2832 1.95874 22.0059 2.17559 21.8807L4.27512 20.6686C4.49192 20.5435 4.76919 20.6176 4.8944 20.8345C5.01956 21.0513 4.94532 21.3286 4.72846 21.4538L2.62893 22.6659C2.55751 22.7071 2.47952 22.7267 2.40264 22.7267Z" fill="#FFD347"/>
<path d="M7.72627 28.0512C7.6494 28.0512 7.57141 28.0316 7.50004 27.9904C7.28325 27.8652 7.20895 27.5879 7.33411 27.3711L8.54624 25.2715C8.67139 25.0547 8.94866 24.9805 9.16551 25.1056C9.38231 25.2308 9.45661 25.508 9.33145 25.7249L8.11932 27.8244C8.0353 27.9698 7.88295 28.0512 7.72627 28.0512Z" fill="#FFD347"/>
<path d="M15 30C14.7496 30 14.5466 29.7971 14.5466 29.5467V27.1223C14.5466 26.8719 14.7496 26.6689 15 26.6689C15.2503 26.6689 15.4533 26.8719 15.4533 27.1223V29.5467C15.4533 29.7971 15.2503 30 15 30Z" fill="#FFD347"/>
<path d="M22.2737 28.0512C22.117 28.0512 21.9647 27.9699 21.8807 27.8245L20.6686 25.7249C20.5434 25.5081 20.6177 25.2309 20.8345 25.1057C21.0513 24.9806 21.3286 25.0547 21.4538 25.2716L22.6659 27.3711C22.7911 27.5879 22.7169 27.8652 22.5 27.9904C22.4286 28.0316 22.3506 28.0512 22.2737 28.0512Z" fill="#FFD347"/>
<path d="M27.5974 22.7267C27.5205 22.7267 27.4425 22.7071 27.3711 22.6659L25.2716 21.4537C25.0548 21.3286 24.9805 21.0513 25.1057 20.8345C25.2308 20.6176 25.5081 20.5434 25.7249 20.6685L27.8245 21.8807C28.0413 22.0058 28.1156 22.2831 27.9904 22.4999C27.9064 22.6454 27.754 22.7267 27.5974 22.7267Z" fill="#FFD347"/>
<path d="M29.5467 15.4533H27.1223C26.8719 15.4533 26.6689 15.2504 26.6689 15C26.6689 14.7496 26.8719 14.5467 27.1223 14.5467H29.5467C29.797 14.5467 30 14.7496 30 15C30 15.2504 29.797 15.4533 29.5467 15.4533Z" fill="#FFD347"/>
<path d="M25.4987 9.39221C25.342 9.39221 25.1896 9.31095 25.1057 9.16552C24.9805 8.94872 25.0547 8.67145 25.2716 8.54624L27.3711 7.33411C27.5879 7.20907 27.8652 7.28313 27.9904 7.50005C28.1156 7.71684 28.0413 7.99411 27.8245 8.11932L25.7249 9.33145C25.6535 9.37264 25.5755 9.39221 25.4987 9.39221Z" fill="#FFD347"/>
<path d="M21.0607 4.95517C20.9839 4.95517 20.9059 4.9356 20.8345 4.89435C20.6177 4.76919 20.5434 4.49192 20.6686 4.27507L21.8807 2.17554C22.0059 1.95868 22.2831 1.8845 22.5 2.0096C22.7168 2.13476 22.7911 2.41202 22.6659 2.62888L21.4538 4.72841C21.3698 4.8739 21.2174 4.95517 21.0607 4.95517Z" fill="#FFD347"/>
<path d="M15 6.51447C14.6929 6.51447 14.3896 6.53122 14.0909 6.56298C18.3498 7.01667 21.6672 10.6207 21.6672 15C21.6672 19.3792 18.3497 22.9833 14.0909 23.437C14.3896 23.4689 14.6928 23.4855 15 23.4855C19.6865 23.4855 23.4856 19.6864 23.4856 15C23.4856 10.3135 19.6865 6.51447 15 6.51447Z" fill="#FFBE31"/>
</g>
<defs>
<clipPath id="clip0_27_29">
<rect width="30" height="30" fill="white"/>
</clipPath>
</defs>
</svg>
